<svg width="977" height="216" viewBox="0 0 977 216" fill="none" xmlns="http://www.w3.org/2000/svg">
<path d="M471.921 0.221191C450.776 0.221191 430.106 6.51807 412.523 18.3167C394.94 30.1135 381.232 46.8839 373.135 66.5057C365.037 86.1276 362.912 107.721 367.027 128.556C371.143 149.39 381.315 168.531 396.258 183.56C411.201 198.589 430.241 208.831 450.977 212.992C471.712 217.151 493.21 215.042 512.753 206.933C532.297 198.821 549.008 185.075 560.774 167.426C572.541 149.777 578.836 129.02 578.861 107.779C578.878 93.6607 576.125 79.6779 570.759 66.6276C565.393 53.5793 557.519 41.7206 547.586 31.7327C537.654 21.7428 525.86 13.817 512.877 8.41004C499.893 3.00304 485.976 0.221191 471.921 0.221191ZM471.921 208.943C450.641 208.906 429.919 202.106 412.72 189.52C395.521 176.932 382.724 159.202 376.167 138.867C382.792 140.047 388.934 143.132 393.851 147.748C401.229 154.716 410.977 158.597 421.105 158.597C431.233 158.597 440.98 154.716 448.359 147.748C454.654 141.695 463.032 138.315 471.745 138.315C480.459 138.315 488.836 141.695 495.131 147.748C502.511 154.716 512.257 158.597 522.385 158.597C532.514 158.597 542.26 154.716 549.64 147.748C554.56 143.14 560.7 140.056 567.323 138.867C560.745 159.104 547.987 176.745 530.861 189.284C513.737 201.824 493.114 208.624 471.921 208.72V208.943ZM471.921 97.6535C467.5 93.4788 457.775 82.6436 457.775 70.2974C457.775 57.9532 467.589 47.1605 471.921 42.9858C476.343 47.1605 486.068 57.9532 486.068 70.2974C486.068 82.6436 476.21 93.2583 471.921 97.433V97.6535ZM545.881 143.039C539.606 149.11 531.232 152.501 522.518 152.501C513.805 152.501 505.431 149.11 499.154 143.039C492.544 136.868 484.057 133.113 475.06 132.382V103.339C479.127 99.6519 492.346 86.5068 492.346 70.2974C492.346 51.6022 474.662 36.9017 473.911 36.2808L471.921 34.6828L469.933 36.2808C469.18 36.9017 451.454 51.6022 451.454 70.2974C451.454 86.5068 464.715 99.6964 468.782 103.339V132.382C459.771 133.104 451.266 136.859 444.645 143.039C438.368 149.11 429.994 152.501 421.281 152.501C412.567 152.501 404.194 149.11 397.918 143.039C391.444 136.959 383.136 133.226 374.31 132.427C372.305 124.367 371.31 116.088 371.347 107.779C371.067 94.3242 373.463 80.9489 378.395 68.4364C383.327 55.9239 390.695 44.5257 400.067 34.9111C409.44 25.2965 420.63 17.6571 432.98 12.4416C445.329 7.22804 458.592 4.54099 471.988 4.54099C485.385 4.54099 498.646 7.22804 510.996 12.4416C523.347 17.6571 534.535 25.2965 543.908 34.9111C553.282 44.5257 560.65 55.9239 565.582 68.4364C570.512 80.9489 572.91 94.3242 572.628 107.779C572.63 116.061 571.605 124.311 569.578 132.338C560.745 133.109 552.413 136.795 545.881 142.819V143.039Z" fill="url(#paint0_linear_1259_2004)"/>
<path d="M500.702 125.988C499.229 126.077 497.753 126.077 496.282 125.988L493.761 125.721L493.496 123.19C493.496 122.258 491.286 99.9201 504.105 87.0419C516.927 74.1618 539.164 76.2492 540.09 76.3826L542.656 76.6051L542.876 79.1819C542.876 80.1144 545.086 102.45 532.267 115.33C522.718 124.655 508.084 125.988 500.702 125.988ZM499.552 119.637C505.387 119.637 519.446 119.06 527.802 110.755C536.156 102.45 536.865 88.2413 536.643 82.3777C530.763 82.3777 516.749 82.9562 508.395 91.2611C500.038 99.5641 499.552 113.775 499.552 119.637Z" fill="url(#paint1_linear_1259_2004)"/>
<path d="M443.32 126.254C435.895 126.254 421.216 124.922 411.491 115.286C398.539 102.23 400.66 79.7581 400.749 78.6922L401.014 76.1173L403.577 75.8504C404.506 75.8504 427.009 73.6295 439.962 86.6412C452.914 99.6528 450.793 122.169 450.704 123.235L450.44 125.809H447.919C446.397 126.051 444.861 126.2 443.32 126.254ZM415.956 110.799C424.444 119.371 438.68 120.037 444.604 119.681C444.604 113.775 444.029 99.4303 435.761 90.9048C427.494 82.3775 412.995 81.6675 407.115 82.0234C407.115 87.9295 407.689 102.274 416.178 110.799H415.956Z" fill="url(#paint2_linear_1259_2004)"/>
<path d="M142.747 151.034H32.2267L7.6923 214.806H0L82.8899 0H91.7327L175.507 214.806H167.859L142.747 151.034ZM140.095 144.24L87.3547 8.56993H87.0459L34.7477 144.24H140.095Z" fill="url(#paint3_linear_1259_2004)"/>
<path d="M210.785 0H217.725V207.878H336.291V214.806H210.785V0Z" fill="url(#paint4_linear_1259_2004)"/>
<path d="M766.702 214.806L700.7 122.701H643.804V214.806H636.907V0H706.889C753.307 0 773.201 26.1567 773.201 60.5293C773.201 101.607 747.163 120.349 709.408 122.701L775.72 214.806H766.702ZM643.804 115.774H701.273C748.709 115.774 765.773 91.8377 765.773 60.5293C765.773 23.6264 742.565 6.97203 707.153 6.97203H643.804V115.774Z" fill="url(#paint5_linear_1259_2004)"/>
<path d="M944.376 151.034H833.855L809.01 214.806H801.493L884.385 0H893.226L977 214.806H969.396L944.376 151.034ZM941.721 144.24L888.937 8.56993H888.583L836.33 144.24H941.721Z" fill="url(#paint6_linear_1259_2004)"/>
<defs>
<linearGradient id="paint0_linear_1259_2004" x1="362.35" y1="132.431" x2="576.228" y2="132.431" gradientUnits="userSpaceOnUse">
<stop stop-color="#3EC6F2"/>
<stop offset="0.0001" stop-color="#3EC6F2"/>
<stop offset="1" stop-color="#6EC7B1"/>
</linearGradient>
<linearGradient id="paint1_linear_1259_2004" x1="492.74" y1="106.87" x2="542.41" y2="106.87" gradientUnits="userSpaceOnUse">
<stop stop-color="#3EC6F2"/>
<stop offset="0.0001" stop-color="#3EC6F2"/>
<stop offset="1" stop-color="#6EC7B1"/>
</linearGradient>
<linearGradient id="paint2_linear_1259_2004" x1="399.949" y1="106.812" x2="450.266" y2="106.812" gradientUnits="userSpaceOnUse">
<stop stop-color="#3EC6F2"/>
<stop offset="0.0001" stop-color="#3EC6F2"/>
<stop offset="1" stop-color="#6EC7B1"/>
</linearGradient>
<linearGradient id="paint3_linear_1259_2004" x1="-2.16008" y1="132.182" x2="173.347" y2="132.182" gradientUnits="userSpaceOnUse">
<stop stop-color="#3EC6F2"/>
<stop offset="0.0001" stop-color="#3EC6F2"/>
<stop offset="1" stop-color="#6EC7B1"/>
</linearGradient>
<linearGradient id="paint4_linear_1259_2004" x1="209.24" y1="132.182" x2="334.746" y2="132.182" gradientUnits="userSpaceOnUse">
<stop stop-color="#3EC6F2"/>
<stop offset="0.0001" stop-color="#3EC6F2"/>
<stop offset="1" stop-color="#6EC7B1"/>
</linearGradient>
<linearGradient id="paint5_linear_1259_2004" x1="635.198" y1="132.182" x2="774.011" y2="132.182" gradientUnits="userSpaceOnUse">
<stop stop-color="#3EC6F2"/>
<stop offset="0.0001" stop-color="#3EC6F2"/>
<stop offset="1" stop-color="#6EC7B1"/>
</linearGradient>
<linearGradient id="paint6_linear_1259_2004" x1="799.333" y1="132.182" x2="974.84" y2="132.182" gradientUnits="userSpaceOnUse">
<stop stop-color="#3EC6F2"/>
<stop offset="0.0001" stop-color="#3EC6F2"/>
<stop offset="1" stop-color="#6EC7B1"/>
</linearGradient>
</defs>
</svg>
